<svg id="Layer_1" data-name="Layer 1" xmlns="http://www.w3.org/2000/svg" viewBox="0 0 499.74 575.62"><defs><style>.cls-1{fill:#ff7bac;}.cls-2{fill:#ff1d25;}.cls-3{fill:#ff931e;}.cls-4{fill:#7ac943;}.cls-5{fill:#3fa9f5;}.cls-6{fill:#bdccd4;}</style></defs><title>shape</title><polygon class="cls-1" points="498.5 144.27 249.87 287.81 249.87 0.71 498.49 142.83 498.5 144.27"/><polygon class="cls-2" points="249.87 0.71 249.87 287.81 1.24 144.27 248.62 0 249.87 0.71"/><polygon class="cls-3" points="249.87 287.81 1.24 431.35 0 144.99 1.24 144.27 249.87 287.81"/><polygon class="cls-4" points="249.87 287.81 249.87 574.91 1.25 432.79 1.24 431.35 249.87 287.81"/><polygon class="cls-5" points="498.5 431.35 251.12 575.62 249.87 574.91 249.87 287.81 498.5 431.35"/><polygon class="cls-6" points="499.74 430.63 498.5 431.35 249.87 287.81 498.5 144.27 499.74 430.63"/></svg>