<?xml version="1.0" encoding="utf-8"?>
<!-- Generator: Adobe Illustrator 16.0.0, SVG Export Plug-In . SVG Version: 6.00 Build 0)  -->
<!DOCTYPE svg PUBLIC "-//W3C//DTD SVG 1.1//EN" "http://www.w3.org/Graphics/SVG/1.1/DTD/svg11.dtd">
<svg version="1.1" id="Layer_2" xmlns="http://www.w3.org/2000/svg" xmlns:xlink="http://www.w3.org/1999/xlink" x="0px" y="0px"
	 width="825px" height="825px" viewBox="-275 0 825 825" enable-background="new -275 0 825 825" xml:space="preserve">
<title>arm</title>
<path fill="#8AD4F7" d="M521.883,28.578c-5.221,0.949-50.783,3.323-75.463-2.374c-24.682-5.694-24.682-6.17-53.158-1.423
	c-30.551,4.748-59.701,16.083-85.433,33.223c-28.475,18.985-71.189,61.7-104.414,132.891
	C198.67,200.86,80.017,319.041,80.017,319.041S8.825,366.5-33.89,409.216c-42.716,42.717-137.639,170.862-137.639,170.862
	l-71.192,61.7c0,0,42.716,42.714,71.192,66.443c0,0,33.698-37.969,71.193-61.698c93.973-59.328,228.762-167.065,284.765-237.308
	c37.971-47.46,99.67-75.938,123.399-99.667c14.24-14.239,108.213-70.244,99.668-113.908c-1.896-10.44-4.743-47.461-18.983-47.461
	c-6.643,0-18.51,7.593-24.679,11.391c-2.533,1.788-5.467,2.929-8.541,3.322l-33.225,4.271c0,0,14.239-9.492,37.969-28.477
	C391.837,113.533,521.883,28.578,521.883,28.578z"/>
</svg>
