<svg id="Layer_2" data-name="Layer 2" xmlns="http://www.w3.org/2000/svg" viewBox="0 0 170 166"><defs><style>.cls-1{fill:#87d4f9;}</style></defs><title>arm</title><path class="cls-1" d="M165.6,12.8c-1.1.2-10.7.7-15.9-.5s-5.2-1.3-11.2-.3a44.91,44.91,0,0,0-18,7c-6,4-15,13-22,28-1,2.1-26,27-26,27s-15,10-24,19-29,36-29,36l-15,13s9,9,15,14c0,0,7.1-8,15-13,19.8-12.5,48.2-35.2,60-50,8-10,21-16,26-21,3-3,22.8-14.8,21-24-.4-2.2-1-10-4-10-1.4,0-3.9,1.6-5.2,2.4a4,4,0,0,1-1.8.7l-7,.9s3-2,8-6C138.2,30.7,165.6,12.8,165.6,12.8Z"/></svg>