<svg id="Layer_2" data-name="Layer 2" xmlns="http://www.w3.org/2000/svg" viewBox="0 0 70 80"><defs><style>.cls-1{fill:#a6d9ff;}</style></defs><title>foot</title><path class="cls-1" d="M57.25,23.28c-.7,1.6.1,3.1.7,4.6a17.53,17.53,0,0,1,1.5,7.2,12.64,12.64,0,0,1-4.7,9.3,11,11,0,0,1-5.8,2.3,3.81,3.81,0,0,0-1.5.1,2.61,2.61,0,0,0-.3.8A77.89,77.89,0,0,0,44,58a3.6,3.6,0,0,1-1.3,2.1,36.11,36.11,0,0,1-5.1,3.6,24.9,24.9,0,0,1-5.2,2.5,6.62,6.62,0,0,1-4.6,0,7,7,0,0,1-2.6-1.9,2,2,0,0,0-1.8-.6c-1,.1-2.8.7-3.6-.2-.4-.5-.1-1.3-.7-1.7-.3-.2-.4-.1-.7-.1a1.65,1.65,0,0,1-1.2,0c-.9-.3-1.6-1.6-2.5-1.6-.6,0-1,.6-1.7.5a2.71,2.71,0,0,1-1.9-1.4c-1.5-2.7.7-5,2-7.3.6-1.1.7-2.2,1.5-3.2a15.38,15.38,0,0,1,1.2-1.3c1.6-1.6,3.4-3.2,5.1-4.7s3.6-3.2,5.4-4.7a17.5,17.5,0,0,0,3.5-3.7c.8-1.3.7-2.7,1.4-4s1.3-2.3,1.8-3.5c.6-1.6,1.2-3.2,1.7-4.8a34.61,34.61,0,0,1,1.9-5.4c.3-.5.5-1.1.8-1.5a3.6,3.6,0,0,1,1.5-1,6.26,6.26,0,0,1,2.7-.6,7,7,0,0,1,4.5.8c2,1.2,3.8,2.5,5.7,3.8a40.21,40.21,0,0,1,3.8,3.4C56.05,22.08,56.65,22.68,57.25,23.28Z"/></svg>