<svg id="Layer_2" data-name="Layer 2" xmlns="http://www.w3.org/2000/svg" viewBox="0 0 79 76"><defs><style>.cls-1{fill:#a6d9ff;}</style></defs><title>hand</title><path class="cls-1" d="M59.9,7.4,74,20.5s-6,6-8,11a47.68,47.68,0,0,1-4,8l-7,9-9,10-5,7s-3,4-4,3-2-2,0-5,9-14,9-14,1-4-2-2-17,18-17,18-4,4-6,1,2-6,2-6l15-16s0-3-2-2-17,20-19,21-7,2-4-4,19-21,19-21,2-2-1-2-18,16-18,16-3,2-4,1-2-2,0-6,23-23,23-23a12.38,12.38,0,0,0,2-3c1-2-4-1-4-1l-5,3s-7,2-10-1,0-4,0-4h3s9-3,11-4,2-4,8-4,6-1,12,0,8-1,8-1Z"/></svg>