<?xml version="1.0" encoding="utf-8"?>
<!-- Generator: Adobe Illustrator 16.0.0, SVG Export Plug-In . SVG Version: 6.00 Build 0)  -->
<!DOCTYPE svg PUBLIC "-//W3C//DTD SVG 1.1//EN" "http://www.w3.org/Graphics/SVG/1.1/DTD/svg11.dtd">
<svg version="1.1" id="Layer_1" xmlns="http://www.w3.org/2000/svg" xmlns:xlink="http://www.w3.org/1999/xlink" x="0px" y="0px"
	 width="100px" height="100px" viewBox="0 0 100 100" enable-background="new 0 0 100 100" xml:space="preserve">
<g>
	<defs>
		<rect id="SVGID_1_" x="-2019" width="1366" height="768"/>
	</defs>
	<clipPath id="SVGID_2_">
		<use xlink:href="#SVGID_1_"  overflow="visible"/>
	</clipPath>
	<path clip-path="url(#SVGID_2_)" fill="#FFFFFF" d="M-1652,60c0,0-30.225,0.204-26,34l1,8c0,0,0-3-2-3c0,0-2-1-3,2s1,13,1,13
		s1,3,2,4s4,0,4-2s1,6,1,7s5,7,7,8s12-1,15-1"/>
	<path clip-path="url(#SVGID_2_)" fill="#A2E4FF" d="M-1652.28,130c3,0,13,2,15,1s7-7,7-8s1-9,1-7s3,3,4,2s2-4,2-4s2-10,1-13
		s-3-2-3-2c-2,0-2,3-2,3l1-8c4.224-33.796-26-34-26-34h0.28c0,0-30.225,0.204-26,34l1,8c0,0,0-3-2-3c0,0-2-1-3,2s1,13,1,13s1,3,2,4
		s4,0,4-2s1,6,1,7s5,7,7,8s12-1,15-1"/>
	<path clip-path="url(#SVGID_2_)" fill="#8BB5FF" d="M-1668,93c0,0,0-1,3-2s7,2,7,2s-3,2-5,2S-1667,94-1668,93"/>
	<path clip-path="url(#SVGID_2_)" fill="#8BB5FF" d="M-1636,93c0,0,0-1-3-2s-7,2-7,2s3,2,5,2S-1637,94-1636,93"/>
	<path clip-path="url(#SVGID_2_)" fill="#8BB5FF" d="M-1653.125,106.5c0.721,0.288,1.529,0.288,2.25,0
		c0.625-0.25,1.375-0.5,1.875-0.5c1,0,1-1,1-3c0-1.408-1.983-5.792-3.157-8.262c-0.337-0.71-1.349-0.71-1.686,0
		c-1.174,2.47-3.157,6.854-3.157,8.262c0,2,0,3,1,3C-1654.5,106-1653.75,106.25-1653.125,106.5"/>
	<path clip-path="url(#SVGID_2_)" fill="#8BB5FF" d="M-1652,119h3c2,0,5-1,6-3c0,0-2.951-1.612-4-2c-0.967-0.357-4-1-4-1
		s0.414,1-1,1s-1-1-1-1s-3.033,0.643-4,1c-1.049,0.388-4,2-4,2c1,2,4,3,6,3H-1652z"/>
	<path clip-path="url(#SVGID_2_)" fill="#A6D9FF" d="M-1654.928,169.135c1.817,1.053,4.045,1.062,5.867,0.019
		c3.829-2.194,10.637-5.355,15.741-3.654c15.312,5.104,39,1,28,0S-1635,156-1636,154c-4.405-8.809,1.18-25,1.18-25s-1.329,1.777-2,2
		c-3,1-11-1-15-1h-0.18c-4,0-12,2-15,1c-0.671-0.223-2-2-2-2s5.405,14.191,1,23c-1,2-19.5,12.5-30.5,13.5s12.688,5.104,28,0
		C-1665.411,163.804-1658.71,166.942-1654.928,169.135"/>
	<path clip-path="url(#SVGID_2_)" fill="#A5E9F9" d="M-1651.86,169.931L-1649,169c0,0,8.28-4.955,12.14-3.979
		c3.86,0.979,13.42,2.469,15.14,2.724C-1620,168-1597,183-1594,185s13,11,15,12s-5,0-8-1s-7-4-8-1s-6,26-6,32v21c0,3-4,18-5,26
		s-1,17,1,21s3,6,2,13s-6,13-12,19s-11,12-15,21s-14,23-15,28s-7,5.334-7,5.334s-6-0.334-7-5.334s-11-19-15-28s-9-15-15-21
		s-11-12-12-19s0-9,2-13s2-13,1-21s-5-23-5-26v-21c0-6-5-29-6-32s-5,0-8,1s-10,2-8,1s12-10,15-12s26-17,27.72-17.254
		c1.72-0.255,11.28-1.746,15.14-2.724c3.86-0.977,12.14,3.979,12.14,3.979l2.86,0.931"/>
	<path clip-path="url(#SVGID_2_)" fill="#87D4F9" d="M-1682.875,167.75c-1.125,0.25-10.668,0.719-15.896-0.515
		C-1704,166-1704,166-1710,167s-12,3-18,7s-15,13-22,28c-0.968,2.075-26,27-26,27s-15,10-24,19s-29,36-29,36l-15,13c0,0,9,9,15,14
		c0,0,7.06-7.962,15-13c19.779-12.548,48.156-35.195,60-50c8-10,21-16,26-21c2.972-2.972,22.839-14.806,21-24
		c-0.435-2.176-1-10-4-10c-1.449,0-3.949,1.576-5.216,2.443c-0.541,0.37-1.158,0.604-1.809,0.685L-1725,197c0,0,3-2,8-6
		C-1710.328,185.663-1682.875,167.75-1682.875,167.75"/>
	<path clip-path="url(#SVGID_2_)" fill="#87D4F9" d="M-1622,166.75c1.125,0.25,10.668,0.719,15.896-0.515
		c5.229-1.235,5.229-1.235,11.229-0.235s12,3,18,7s15,13,22,28c0.968,2.075,26,27,26,27s15,10,24,19s29,36,29,36l15,13
		c0,0-9,9-15,14c0,0-7.06-7.962-15-13c-19.779-12.548-48.156-35.195-60-50c-8-10-21-16-26-21c-2.972-2.972-22.839-14.806-21-24
		c0.435-2.176,1-10,4-10c1.449,0,3.949,1.576,5.216,2.443c0.541,0.37,1.158,0.604,1.809,0.685l6.975,0.872c0,0-3-2-8-6
		C-1594.547,184.663-1622,166.75-1622,166.75"/>
	<path clip-path="url(#SVGID_2_)" fill="#87D4F9" d="M-1652,381c0,0-1.042,0.357-4-2s-4.142-6.099-4.142-6.099
		S-1675.015,346.462-1676,344c-2-5-16-21-18.05-22.432c-1.665-1.163-6.259-10.568-6.259-10.568s-2.691,17-3.691,21s-2,9-3,16
		s-9,28-11,39s-2,59-2,63s5,20,6,28s1,25,1,28s2,9,8,12s11,2,11,2s5,1,12-3s9-31,9-31s15-86,15-92S-1652,381-1652,381"/>
	<path clip-path="url(#SVGID_2_)" fill="#87D4F9" d="M-1652,381c0,0,1.042,0.357,4-2s4.142-6.099,4.142-6.099
		S-1628.985,346.462-1628,344c2-5,16-21,18.05-22.432c1.665-1.163,6.259-10.568,6.259-10.568s2.691,17,3.691,21s2,9,3,16s9,28,11,39
		s2,59,2,63s-5,20-6,28s-1,25-1,28s-2,9-8,12s-11,2-11,2s-5,1-12-3s-9-31-9-31s-15-86-15-92S-1652,381-1652,381"/>
	<path clip-path="url(#SVGID_2_)" fill="#A5E9F9" d="M-1679.197,513.841c0,0-2.303,5.479-12.553,6.319
		c-10.25,0.84-20.405-3.613-20.827-11.387C-1713,501-1714,523-1715,523s-4,27-3,34s2,23,3,35s2,33,1,41s0,9,0,11s0-4,4-5s6,0,9,2
		s7,5,8,7s2-2.764,2-5c0-5-2-6-3-9s2-10,2-17s7-43,10-50s3-10,3-16S-1681.393,524.682-1679.197,513.841"/>
	<path clip-path="url(#SVGID_2_)" fill="#A5E9F9" d="M-1625.005,513.841c0,0,2.304,5.479,12.554,6.319
		c10.25,0.84,20.404-3.613,20.827-11.387s1.423,14.227,2.423,14.227s4,27,3,34s-2,23-3,35s-2,33-1,41s0,9,0,11s0-4-4-5s-6,0-9,2
		s-7,5-8,7s-2-2.764-2-5c0-5,2-6,3-9s-2-10-2-17s-7-43-10-50s-3-10-3-16S-1622.808,524.682-1625.005,513.841"/>
	<path clip-path="url(#SVGID_2_)" fill="#A6D9FF" d="M-1692.25,648.479c-0.705,1.614,0.123,3.123,0.746,4.6
		c0.941,2.232,1.593,4.749,1.499,7.188c-0.137,3.546-1.948,7.147-4.732,9.32c-1.709,1.334-3.612,2.08-5.758,2.315
		c-0.341,0.038-1.208-0.078-1.49,0.098c-0.144,0.088-0.27,0.653-0.328,0.805c-1.31,3.417-2.375,6.865-3.179,10.434
		c-0.209,0.927-0.567,1.486-1.302,2.093c-1.606,1.325-3.339,2.562-5.12,3.639c-1.625,0.982-3.422,1.917-5.24,2.513
		c-1.469,0.48-3.089,0.562-4.554,0.018c-1.062-0.396-1.835-1.083-2.646-1.852c-0.574-0.544-0.972-0.689-1.768-0.646
		c-1.01,0.056-2.798,0.732-3.604-0.176c-0.444-0.501-0.091-1.27-0.706-1.666c-0.348-0.225-0.441-0.114-0.723-0.054
		c-0.453,0.097-0.765,0.182-1.24,0.019c-0.908-0.312-1.588-1.617-2.531-1.617c-0.63,0-0.987,0.574-1.66,0.526
		c-0.831-0.059-1.503-0.719-1.898-1.428c-1.518-2.723,0.749-5.009,1.97-7.305c0.584-1.098,0.711-2.169,1.514-3.178
		c0.367-0.463,0.767-0.896,1.187-1.31c1.639-1.619,3.364-3.156,5.084-4.688c1.797-1.601,3.638-3.151,5.44-4.747
		c1.267-1.122,2.588-2.31,3.525-3.735c0.834-1.269,0.731-2.733,1.407-4.045c0.603-1.172,1.281-2.252,1.784-3.482
		c0.638-1.563,1.177-3.168,1.682-4.779c0.58-1.849,0.973-3.666,1.856-5.387c0.252-0.49,0.463-1.079,0.792-1.522
		c0.354-0.477,0.977-0.755,1.491-1.035c0.883-0.482,1.698-0.511,2.703-0.634c1.461-0.18,3.225,0.026,4.511,0.788
		c1.966,1.164,3.836,2.529,5.744,3.787c1.4,0.923,2.546,2.276,3.753,3.431C-1693.443,647.338-1692.847,647.908-1692.25,648.479"/>
	<path clip-path="url(#SVGID_2_)" fill="#A6D9FF" d="M-1611.736,648.479c0.705,1.614-0.123,3.123-0.746,4.6
		c-0.941,2.232-1.593,4.749-1.499,7.188c0.137,3.546,1.948,7.147,4.731,9.32c1.71,1.334,3.613,2.08,5.759,2.315
		c0.341,0.038,1.208-0.078,1.489,0.098c0.145,0.088,0.271,0.653,0.329,0.805c1.309,3.417,2.375,6.865,3.179,10.434
		c0.209,0.927,0.567,1.486,1.302,2.093c1.606,1.325,3.339,2.562,5.12,3.639c1.624,0.982,3.422,1.917,5.24,2.513
		c1.469,0.48,3.089,0.562,4.554,0.018c1.062-0.396,1.835-1.083,2.646-1.852c0.574-0.544,0.972-0.689,1.768-0.646
		c1.01,0.056,2.798,0.732,3.604-0.176c0.443-0.501,0.091-1.27,0.706-1.666c0.348-0.225,0.441-0.114,0.723-0.054
		c0.453,0.097,0.765,0.182,1.24,0.019c0.908-0.312,1.588-1.617,2.531-1.617c0.63,0,0.987,0.574,1.66,0.526
		c0.831-0.059,1.503-0.719,1.898-1.428c1.518-2.723-0.749-5.009-1.97-7.305c-0.584-1.098-0.711-2.169-1.514-3.178
		c-0.367-0.463-0.768-0.896-1.187-1.31c-1.639-1.619-3.364-3.156-5.084-4.688c-1.797-1.601-3.638-3.151-5.44-4.747
		c-1.267-1.122-2.588-2.31-3.525-3.735c-0.834-1.269-0.731-2.733-1.407-4.045c-0.603-1.172-1.282-2.252-1.784-3.482
		c-0.638-1.563-1.177-3.168-1.682-4.779c-0.58-1.849-0.973-3.666-1.856-5.387c-0.252-0.49-0.463-1.079-0.792-1.522
		c-0.354-0.477-0.977-0.755-1.491-1.035c-0.883-0.482-1.698-0.511-2.703-0.634c-1.461-0.18-3.225,0.026-4.511,0.788
		c-1.966,1.164-3.837,2.529-5.744,3.787c-1.4,0.923-2.546,2.276-3.753,3.431C-1610.543,647.338-1611.139,647.908-1611.736,648.479"
		/>
	<path clip-path="url(#SVGID_2_)" fill="#A6D9FF" d="M-1843.593,297.405l14.093,13.095c0,0-6,6-8,11s-4,8-4,8l-7,9l-9,10l-5,7
		c0,0-3,4-4,3s-2-2,0-5s9-14,9-14s1-4-2-2s-17,18-17,18s-4,4-6,1s2-6,2-6l15-16c0,0,0-3-2-2s-17,20-19,21s-7,2-4-4s19-21,19-21
		s2-2-1-2s-18,16-18,16s-3,2-4,1s-2-2,0-6s23-23,23-23s1-1,2-3s-4-1-4-1l-5,3c0,0-7,2-10-1s0-4,0-4h3c0,0,9-3,11-4s2-4,8-4s6-1,12,0
		s8-1,8-1L-1843.593,297.405z"/>
	<path clip-path="url(#SVGID_2_)" fill="#A6D9FF" d="M-1461.562,296.905L-1475.655,310c0,0,6,6,8,11s4,8,4,8l7,9l9,10l5,7
		c0,0,3,4,4,3s2-2,0-5s-9-14-9-14s-1-4,2-2s17,18,17,18s4,4,6,1s-2-6-2-6l-15-16c0,0,0-3,2-2s17,20,19,21s7,2,4-4s-19-21-19-21
		s-2-2,1-2s18,16,18,16s3,2,4,1s2-2,0-6s-23-23-23-23s-1-1-2-3s4-1,4-1l5,3c0,0,7,2,10-1s0-4,0-4h-3c0,0-9-3-11-4s-2-4-8-4
		s-6-1-12,0s-8-1-8-1L-1461.562,296.905z"/>
</g>
<path fill="#A6D9FF" d="M33.992,21.723L19.899,34.818c0,0,6,6,8,11c2,5,4,8,4,8l7,9l9,10l5,7c0,0,3,4,4,3s2-2,0-5s-9-14-9-14
	s-1-4,2-2s17,18,17,18s4,4,6,1s-2-6-2-6l-15-16c0,0,0-3,2-2s17,20,19,21s7,2,4-4c-3-6-19-21-19-21s-2-2,1-2s18,16,18,16s3,2,4,1
	s2-2,0-6s-23-23-23-23s-1-1-2-3s4-1,4-1l5,3c0,0,7,2,10-1s0-4,0-4h-3c0,0-9-3-11-4s-2-4-8-4s-6-1-12,0s-8-1-8-1L33.992,21.723z"/>
</svg>
