<?xml version="1.0" encoding="utf-8"?>
<!-- Generator: Adobe Illustrator 22.1.0, SVG Export Plug-In . SVG Version: 6.00 Build 0)  -->
<svg version="1.1" id="Layer_2_1_" xmlns="http://www.w3.org/2000/svg" xmlns:xlink="http://www.w3.org/1999/xlink" x="0px" y="0px"
	 viewBox="0 0 501 656" style="enable-background:new 0 0 501 656;" xml:space="preserve">
<style type="text/css">
	.st0{fill:#FFFFFF;}
	.st1{fill:#A2E4FF;}
	.st2{fill:#8BB5FF;}
	.st3{fill:#A6D9FF;}
	.st4{fill:#A5E9F9;}
	.st5{fill:#87D4F9;}
</style>
<path class="st3" d="M273.4,290l14.1,13.1c0,0-6,6-8,11s-4,8-4,8l-7,9l-9,10l-5,7c0,0-3,4-4,3s-2-2,0-5s9-14,9-14s1-4-2-2
	s-17,18-17,18s-4,4-6,1s2-6,2-6l15-16c0,0,0-3-2-2s-17,20-19,21s-7,2-4-4s19-21,19-21s2-2-1-2s-18,16-18,16s-3,2-4,1s-2-2,0-6
	s23-23,23-23s1-1,2-3s-4-1-4-1l-5,3c0,0-7,2-10-1s0-4,0-4h3c0,0,9-3,11-4s2-4,8-4s6-1,12,0s8-1,8-1L273.4,290z"/>
</svg>
