<?xml version="1.0" encoding="utf-8"?>
<!-- Generator: Adobe Illustrator 22.1.0, SVG Export Plug-In . SVG Version: 6.00 Build 0)  -->
<svg version="1.1" id="Layer_2_1_" xmlns="http://www.w3.org/2000/svg" xmlns:xlink="http://www.w3.org/1999/xlink" x="0px" y="0px"
	 viewBox="0 0 80 80" style="enable-background:new 0 0 80 80;" xml:space="preserve">
<style type="text/css">
	.st0{fill:#FFFFFF;}
	.st1{fill:#A2E4FF;}
	.st2{fill:#8BB5FF;}
	.st3{fill:#A6D9FF;}
	.st4{fill:#A5E9F9;}
	.st5{fill:#87D4F9;}
</style>
<path class="st0" d="M40.1,3c0,0-30.2,0.2-26,34c1,8,1,8,1,8s0-3-2-3c0,0-2-1-3,2s1,13,1,13s1,3,2,4s4,0,4-2s1,6,1,7s5,7,7,8
	s12-1,15-1"/>
<path class="st1" d="M39.8,73c3,0,13,2,15,1s7-7,7-8s1-9,1-7s3,3,4,2s2-4,2-4s2-10,1-13s-3-2-3-2c-2,0-2,3-2,3s0,0,1-8
	c4.2-33.8-26-34-26-34h0.3c0,0-30.2,0.2-26,34c1,8,1,8,1,8s0-3-2-3c0,0-2-1-3,2s1,13,1,13s1,3,2,4s4,0,4-2s1,6,1,7s5,7,7,8
	s12-1,15-1"/>
<path class="st2" d="M24.1,36c0,0,0-1,3-2s7,2,7,2s-3,2-5,2S25.1,37,24.1,36z"/>
<path class="st2" d="M56.1,36c0,0,0-1-3-2s-7,2-7,2s3,2,5,2S55.1,37,56.1,36z"/>
<path class="st2" d="M39,49.5c0.7,0.3,1.5,0.3,2.2,0c0.6-0.2,1.4-0.5,1.9-0.5c1,0,1-1,1-3c0-1.4-2-5.8-3.2-8.3
	c-0.3-0.7-1.3-0.7-1.7,0C38,40.2,36,44.6,36,46c0,2,0,3,1,3C37.6,49,38.3,49.2,39,49.5z"/>
<path class="st2" d="M40.1,62c0,0,0,0,3,0c2,0,5-1,6-3c0,0-3-1.6-4-2s-4-1-4-1s0.4,1-1,1s-1-1-1-1s-3,0.6-4,1s-4,2-4,2c1,2,4,3,6,3
	C40.1,62,40.1,62,40.1,62z"/>
</svg>
