<?xml version="1.0" encoding="utf-8"?>
<!-- Generator: Adobe Illustrator 22.1.0, SVG Export Plug-In . SVG Version: 6.00 Build 0)  -->
<svg version="1.1" id="Layer_2" xmlns="http://www.w3.org/2000/svg" xmlns:xlink="http://www.w3.org/1999/xlink" x="0px" y="0px"
	 viewBox="0 0 1366 768" style="enable-background:new 0 0 1366 768;" xml:space="preserve">
<style type="text/css">
	.st0{fill:#FFFFFF;}
	.st1{fill:#A2E4FF;}
	.st2{fill:#8BB5FF;}
	.st3{fill:#A6D9FF;}
	.st4{fill:#A5E9F9;}
	.st5{fill:#87D4F9;}
</style>
<path class="st0" d="M367,60c0,0-30.2,0.2-26,34c1,8,1,8,1,8s0-3-2-3c0,0-2-1-3,2s1,13,1,13s1,3,2,4s4,0,4-2s1,6,1,7s5,7,7,8
	s12-1,15-1"/>
<path class="st1" d="M366.7,130c3,0,13,2,15,1s7-7,7-8s1-9,1-7s3,3,4,2s2-4,2-4s2-10,1-13s-3-2-3-2c-2,0-2,3-2,3s0,0,1-8
	c4.2-33.8-26-34-26-34h0.3c0,0-30.2,0.2-26,34c1,8,1,8,1,8s0-3-2-3c0,0-2-1-3,2s1,13,1,13s1,3,2,4s4,0,4-2s1,6,1,7s5,7,7,8
	s12-1,15-1"/>
<path class="st2" d="M351,93c0,0,0-1,3-2s7,2,7,2s-3,2-5,2S352,94,351,93z"/>
<path class="st2" d="M383,93c0,0,0-1-3-2s-7,2-7,2s3,2,5,2S382,94,383,93z"/>
<path class="st2" d="M365.9,106.5c0.7,0.3,1.5,0.3,2.2,0c0.6-0.2,1.4-0.5,1.9-0.5c1,0,1-1,1-3c0-1.4-2-5.8-3.2-8.3
	c-0.3-0.7-1.3-0.7-1.7,0c-1.2,2.5-3.2,6.9-3.2,8.3c0,2,0,3,1,3C364.5,106,365.2,106.2,365.9,106.5z"/>
<path class="st2" d="M367,119c0,0,0,0,3,0c2,0,5-1,6-3c0,0-3-1.6-4-2c-1-0.4-4-1-4-1s0.4,1-1,1s-1-1-1-1s-3,0.6-4,1c-1,0.4-4,2-4,2
	c1,2,4,3,6,3C367,119,367,119,367,119z"/>
<path class="st3" d="M364.1,169.1c1.8,1.1,4,1.1,5.9,0c3.8-2.2,10.6-5.4,15.7-3.7c15.3,5.1,39,1,28,0S384,156,383,154
	c-4.4-8.8,1.2-25,1.2-25s-1.3,1.8-2,2c-3,1-11-1-15-1H367c-4,0-12,2-15,1c-0.7-0.2-2-2-2-2s5.4,14.2,1,23c-1,2-19.5,12.5-30.5,13.5
	s12.7,5.1,28,0C353.6,163.8,360.3,166.9,364.1,169.1z"/>
<path class="st4" d="M367.1,169.9l2.9-0.9c0,0,8.3-5,12.1-4c3.9,1,13.4,2.5,15.1,2.7C399,168,422,183,425,185s13,11,15,12s-5,0-8-1
	s-7-4-8-1s-6,26-6,32s0,18,0,21s-4,18-5,26s-1,17,1,21s3,6,2,13s-6,13-12,19s-11,12-15,21s-14,23-15,28s-7,5.3-7,5.3s-6-0.3-7-5.3
	s-11-19-15-28s-9-15-15-21s-11-12-12-19s0-9,2-13s2-13,1-21s-5-23-5-26s0-15,0-21s-5-29-6-32s-5,0-8,1s-10,2-8,1s12-10,15-12
	s26-17,27.7-17.3c1.7-0.3,11.3-1.7,15.1-2.7c3.9-1,12.1,4,12.1,4l2.9,0.9"/>
<path class="st5" d="M336.1,167.8c-1.1,0.2-10.7,0.7-15.9-0.5S315,166,309,167s-12,3-18,7s-15,13-22,28c-1,2.1-26,27-26,27
	s-15,10-24,19s-29,36-29,36l-15,13c0,0,9,9,15,14c0,0,7.1-8,15-13c19.8-12.5,48.2-35.2,60-50c8-10,21-16,26-21c3-3,22.8-14.8,21-24
	c-0.4-2.2-1-10-4-10c-1.4,0-3.9,1.6-5.2,2.4c-0.5,0.4-1.2,0.6-1.8,0.7l-7,0.9c0,0,3-2,8-6C308.7,185.7,336.1,167.8,336.1,167.8z"/>
<path class="st5" d="M397,166.8c1.1,0.2,10.7,0.7,15.9-0.5s5.2-1.2,11.2-0.2s12,3,18,7s15,13,22,28c1,2.1,26,27,26,27s15,10,24,19
	s29,36,29,36l15,13c0,0-9,9-15,14c0,0-7.1-8-15-13c-19.8-12.5-48.2-35.2-60-50c-8-10-21-16-26-21c-3-3-22.8-14.8-21-24
	c0.4-2.2,1-10,4-10c1.4,0,3.9,1.6,5.2,2.4c0.5,0.4,1.2,0.6,1.8,0.7l7,0.9c0,0-3-2-8-6C424.5,184.7,397,166.8,397,166.8z"/>
<path class="st5" d="M367,381c0,0-1,0.4-4-2s-4.1-6.1-4.1-6.1S344,346.5,343,344c-2-5-16-21-18.1-22.4c-1.7-1.2-6.3-10.6-6.3-10.6
	s-2.7,17-3.7,21s-2,9-3,16s-9,28-11,39s-2,59-2,63s5,20,6,28s1,25,1,28s2,9,8,12s11,2,11,2s5,1,12-3s9-31,9-31s15-86,15-92
	S367,381,367,381z"/>
<path class="st5" d="M367,381c0,0,1,0.4,4-2s4.1-6.1,4.1-6.1S390,346.5,391,344c2-5,16-21,18.1-22.4c1.7-1.2,6.3-10.6,6.3-10.6
	s2.7,17,3.7,21s2,9,3,16s9,28,11,39s2,59,2,63s-5,20-6,28s-1,25-1,28s-2,9-8,12s-11,2-11,2s-5,1-12-3s-9-31-9-31s-15-86-15-92
	S367,381,367,381z"/>
<path class="st4" d="M429,520"/>
<path class="st4" d="M339.8,513.8c0,0-2.3,5.5-12.6,6.3c-10.2,0.8-20.4-3.6-20.8-11.4S305,523,304,523s-4,27-3,34s2,23,3,35
	s2,33,1,41s0,9,0,11s0-4,4-5s6,0,9,2s7,5,8,7s2-2.8,2-5c0-5-2-6-3-9s2-10,2-17s7-43,10-50s3-10,3-16S337.6,524.7,339.8,513.8z"/>
<path class="st4" d="M394,513.8c0,0,2.3,5.5,12.6,6.3c10.2,0.8,20.4-3.6,20.8-11.4s1.4,14.2,2.4,14.2s4,27,3,34s-2,23-3,35
	s-2,33-1,41s0,9,0,11s0-4-4-5s-6,0-9,2s-7,5-8,7s-2-2.8-2-5c0-5,2-6,3-9s-2-10-2-17s-7-43-10-50s-3-10-3-16S396.2,524.7,394,513.8z"
	/>
<path class="st3" d="M326.8,648.5c-0.7,1.6,0.1,3.1,0.7,4.6c0.9,2.2,1.6,4.7,1.5,7.2c-0.1,3.5-1.9,7.1-4.7,9.3
	c-1.7,1.3-3.6,2.1-5.8,2.3c-0.3,0-1.2-0.1-1.5,0.1c-0.1,0.1-0.3,0.7-0.3,0.8c-1.3,3.4-2.4,6.9-3.2,10.4c-0.2,0.9-0.6,1.5-1.3,2.1
	c-1.6,1.3-3.3,2.6-5.1,3.6c-1.6,1-3.4,1.9-5.2,2.5c-1.5,0.5-3.1,0.6-4.6,0c-1.1-0.4-1.8-1.1-2.6-1.9c-0.6-0.5-1-0.7-1.8-0.6
	c-1,0.1-2.8,0.7-3.6-0.2c-0.4-0.5-0.1-1.3-0.7-1.7c-0.3-0.2-0.4-0.1-0.7-0.1c-0.5,0.1-0.8,0.2-1.2,0c-0.9-0.3-1.6-1.6-2.5-1.6
	c-0.6,0-1,0.6-1.7,0.5c-0.8-0.1-1.5-0.7-1.9-1.4c-1.5-2.7,0.7-5,2-7.3c0.6-1.1,0.7-2.2,1.5-3.2c0.4-0.5,0.8-0.9,1.2-1.3
	c1.6-1.6,3.4-3.2,5.1-4.7c1.8-1.6,3.6-3.2,5.4-4.7c1.3-1.1,2.6-2.3,3.5-3.7c0.8-1.3,0.7-2.7,1.4-4c0.6-1.2,1.3-2.3,1.8-3.5
	c0.6-1.6,1.2-3.2,1.7-4.8c0.6-1.8,1-3.7,1.9-5.4c0.3-0.5,0.5-1.1,0.8-1.5c0.4-0.5,1-0.8,1.5-1c0.9-0.5,1.7-0.5,2.7-0.6
	c1.5-0.2,3.2,0,4.5,0.8c2,1.2,3.8,2.5,5.7,3.8c1.4,0.9,2.5,2.3,3.8,3.4C325.6,647.3,326.2,647.9,326.8,648.5z"/>
<path class="st3" d="M407.3,648.5c0.7,1.6-0.1,3.1-0.7,4.6c-0.9,2.2-1.6,4.7-1.5,7.2c0.1,3.5,1.9,7.1,4.7,9.3
	c1.7,1.3,3.6,2.1,5.8,2.3c0.3,0,1.2-0.1,1.5,0.1c0.1,0.1,0.3,0.7,0.3,0.8c1.3,3.4,2.4,6.9,3.2,10.4c0.2,0.9,0.6,1.5,1.3,2.1
	c1.6,1.3,3.3,2.6,5.1,3.6c1.6,1,3.4,1.9,5.2,2.5c1.5,0.5,3.1,0.6,4.6,0c1.1-0.4,1.8-1.1,2.6-1.9c0.6-0.5,1-0.7,1.8-0.6
	c1,0.1,2.8,0.7,3.6-0.2c0.4-0.5,0.1-1.3,0.7-1.7c0.3-0.2,0.4-0.1,0.7-0.1c0.5,0.1,0.8,0.2,1.2,0c0.9-0.3,1.6-1.6,2.5-1.6
	c0.6,0,1,0.6,1.7,0.5c0.8-0.1,1.5-0.7,1.9-1.4c1.5-2.7-0.7-5-2-7.3c-0.6-1.1-0.7-2.2-1.5-3.2c-0.4-0.5-0.8-0.9-1.2-1.3
	c-1.6-1.6-3.4-3.2-5.1-4.7c-1.8-1.6-3.6-3.2-5.4-4.7c-1.3-1.1-2.6-2.3-3.5-3.7c-0.8-1.3-0.7-2.7-1.4-4c-0.6-1.2-1.3-2.3-1.8-3.5
	c-0.6-1.6-1.2-3.2-1.7-4.8c-0.6-1.8-1-3.7-1.9-5.4c-0.3-0.5-0.5-1.1-0.8-1.5c-0.4-0.5-1-0.8-1.5-1c-0.9-0.5-1.7-0.5-2.7-0.6
	c-1.5-0.2-3.2,0-4.5,0.8c-2,1.2-3.8,2.5-5.7,3.8c-1.4,0.9-2.5,2.3-3.8,3.4C408.5,647.3,407.9,647.9,407.3,648.5z"/>
<path class="st3" d="M175.4,297.4l14.1,13.1c0,0-6,6-8,11s-4,8-4,8l-7,9l-9,10l-5,7c0,0-3,4-4,3s-2-2,0-5s9-14,9-14s1-4-2-2
	s-17,18-17,18s-4,4-6,1s2-6,2-6l15-16c0,0,0-3-2-2s-17,20-19,21s-7,2-4-4s19-21,19-21s2-2-1-2s-18,16-18,16s-3,2-4,1s-2-2,0-6
	s23-23,23-23s1-1,2-3s-4-1-4-1l-5,3c0,0-7,2-10-1s0-4,0-4h3c0,0,9-3,11-4s2-4,8-4s6-1,12,0s8-1,8-1L175.4,297.4z"/>
<path class="st3" d="M557.4,296.9L543.3,310c0,0,6,6,8,11s4,8,4,8l7,9l9,10l5,7c0,0,3,4,4,3s2-2,0-5s-9-14-9-14s-1-4,2-2
	s17,18,17,18s4,4,6,1s-2-6-2-6l-15-16c0,0,0-3,2-2s17,20,19,21s7,2,4-4s-19-21-19-21s-2-2,1-2s18,16,18,16s3,2,4,1s2-2,0-6
	s-23-23-23-23s-1-1-2-3s4-1,4-1l5,3c0,0,7,2,10-1s0-4,0-4h-3c0,0-9-3-11-4s-2-4-8-4s-6-1-12,0s-8-1-8-1L557.4,296.9z"/>
</svg>
