<svg id="Layer_2" data-name="Layer 2" xmlns="http://www.w3.org/2000/svg" viewBox="0 0 170 230"><defs><style>.cls-1{fill:#a5e9f9;}</style></defs><title>torso</title><path class="cls-1" d="M85.6,11.9l2.9-.9s8.3-5,12.1-4S114,9.5,115.7,9.7,140.5,25,143.5,27s13,11,15,12-5,0-8-1-7-4-8-1-6,26-6,32V90c0,3-4,18-5,26s-1,17,1,21,3,6,2,13-6,13-12,19-11,12-15,21-14,23-15,28-7,5.3-7,5.3-6-.3-7-5.3-11-19-15-28-9-15-15-21-11-12-12-19,0-9,2-13,2-13,1-21-5-23-5-26V69c0-6-5-29-6-32s-5,0-8,1-10,2-8,1,12-10,15-12,26-17,27.7-17.3S66.5,8,70.3,7s12.1,4,12.1,4l2.9.9"/></svg>